<svg xmlns="http://www.w3.org/2000/svg" viewBox="0 0 68.78 23.51"><defs><style>.cls-1{fill:#303031;}</style></defs><g id="Calque_2" data-name="Calque 2"><g id="Calque_1-2" data-name="Calque 1"><path class="cls-1" d="M0,6H6.31L9.6,16,12.88,6h6.24L12.29,23.13H6.81Z"/><path class="cls-1" d="M21,0H27.3V4.45H21Zm.14,5.94H27.1V23.13H21.17Z"/><path class="cls-1" d="M30.53,6h6v2.4A6.32,6.32,0,0,1,41.66,5.6c3.64,0,5.82,2.39,5.82,6.27V23.13H41.55V13.8c0-1.85-1-2.88-2.41-2.88a2.55,2.55,0,0,0-2.55,2.53,2,2,0,0,0,0,.35v9.33H30.53Z"/><path class="cls-1" d="M49.89,14.59h0a9.09,9.09,0,0,1,9.28-8.91h.2a9,9,0,0,1,9.4,8.6c0,.11,0,.21,0,.31h0A9.1,9.1,0,0,1,59.5,23.5h-.19a9,9,0,0,1-9.41-8.62A2.71,2.71,0,0,1,49.89,14.59Zm13,0h0a3.71,3.71,0,0,0-3.55-3.86h-.07a3.59,3.59,0,0,0-3.58,3.6,1.34,1.34,0,0,0,0,.2h0a3.7,3.7,0,0,0,3.55,3.86h.08a3.57,3.57,0,0,0,3.57-3.58A1.55,1.55,0,0,0,62.93,14.59Z"/></g></g></svg>