<svg xmlns="http://www.w3.org/2000/svg" viewBox="0 0 38.37 74.49"><defs><style>.cls-1{fill:#58111a;}</style></defs><g id="Calque_2" data-name="Calque 2"><g id="Calque_1-2" data-name="Calque 1"><path class="cls-1" d="M35.33,25.6l-.46,28.06A17.09,17.09,0,0,1,34,59.87c-1,2.44-3,4.27-5,6l-5.1,4.49a3.28,3.28,0,0,1-2.61,1.16,3.19,3.19,0,0,1-1.57-1.13C8.07,57.47,5.38,39.05,3.2,21.8c-.22-1.8-.44-3.71.33-5.36A9.36,9.36,0,0,1,7.1,12.92,100.06,100.06,0,0,1,26,3.06q5,12.89,9.33,26"/><path class="cls-1" d="M32.33,25.6c-.16,9.73-.18,19.47-.48,29.19a9.37,9.37,0,0,1-1.47,5.45,23.89,23.89,0,0,1-3.88,3.84c-1.65,1.46-3.49,2.86-5,4.41-.49.48-.23.06.16.07s1,.72.46,0c-.23-.31-.54-.59-.8-.88-.61-.71-1.2-1.42-1.75-2.17-9.29-12.59-11.62-29-13.4-44.14a10.58,10.58,0,0,1-.11-3,3.42,3.42,0,0,1,1.43-2.09,47.07,47.07,0,0,1,5.76-3.71A96.6,96.6,0,0,1,26.82,6l-3.69-2.1q4.95,12.9,9.33,26a3.06,3.06,0,0,0,3.69,2.09,3,3,0,0,0,2.09-3.69q-4.37-13.09-9.32-26C28.38.87,26.85-.48,25.23.16A106.92,106.92,0,0,0,11.39,6.75C9.19,8,7,9.32,4.93,10.77S1.06,13.93.35,16.42s-.21,4.93.11,7.36q.44,3.39.91,6.77C2,35,2.76,39.34,3.77,43.67c2,8.6,5.07,17.18,10.25,24.4a26.75,26.75,0,0,0,4.44,5.27c2.65,2.14,5.44,1,7.73-1,1.94-1.7,3.9-3.4,5.81-5.13a18,18,0,0,0,4.35-5.29c1.34-2.76,1.48-5.73,1.53-8.75L38,44.06l.3-18.46c.07-3.86-5.93-3.86-6,0Z"/></g></g></svg>